<?xml version="1.0" encoding="utf-8"?>
<!-- Generator: Adobe Illustrator 16.0.1, SVG Export Plug-In . SVG Version: 6.00 Build 0)  -->
<!DOCTYPE svg PUBLIC "-//W3C//DTD SVG 1.1//EN" "http://www.w3.org/Graphics/SVG/1.1/DTD/svg11.dtd">
<svg version="1.1" id="Layer_1" xmlns="http://www.w3.org/2000/svg" xmlns:xlink="http://www.w3.org/1999/xlink" x="0px" y="0px"
	 width="230.667px" height="69.666px" viewBox="0 0 230.667 69.666" enable-background="new 0 0 230.667 69.666"
	 xml:space="preserve">
<g>
	<path fill="#002D56" d="M86.013,28.304h5.286c0.372,3.202,2.194,4.466,5.992,4.466c2.754,0,5.174-0.967,5.174-3.423
		c0-2.605-2.529-3.127-6.587-4.058c-4.765-1.079-9.121-2.345-9.121-7.892c0-5.25,4.28-7.968,10.198-7.968
		c5.995,0,9.865,2.941,10.275,8.301h-5.175c-0.296-2.679-2.383-4.021-5.137-4.021c-2.904,0-4.802,1.229-4.802,3.129
		c0,2.157,1.861,2.792,5.809,3.646c5.472,1.191,9.938,2.495,9.938,8.228c0,5.399-4.355,8.413-10.351,8.413
		C90.293,37.126,86.2,33.926,86.013,28.304z"/>
	<path fill="#002D56" d="M109.025,17.434h2.642v-5.957h4.951v5.957h3.276v3.35h-3.276v10.125c0,1.415,0.783,1.899,1.899,1.899
		c0.632,0,1.489-0.039,1.489-0.039v3.725c0,0-1.156,0.074-3.166,0.074c-2.456,0-5.174-0.968-5.174-4.579V20.784h-2.642V17.434z"/>
	<path fill="#002D56" d="M127.006,20.485h0.11c1.154-2.158,2.458-3.274,4.691-3.274c0.559,0,0.894,0.037,1.19,0.147v4.432h-0.11
		c-3.313-0.335-5.696,1.413-5.696,5.434v9.308h-5.062V17.434h4.877V20.485z"/>
	<path fill="#002D56" d="M145.844,34.408h-0.073c-0.969,1.452-2.347,2.568-5.623,2.568c-3.907,0-6.662-2.047-6.662-5.843
		c0-4.207,3.425-5.548,7.669-6.144c3.163-0.445,4.616-0.707,4.616-2.159c0-1.376-1.081-2.27-3.204-2.27
		c-2.381,0-3.535,0.856-3.685,2.678h-4.503c0.148-3.349,2.642-6.29,8.227-6.29c5.733,0,8.039,2.569,8.039,7.037v9.716
		c0,1.45,0.226,2.308,0.672,2.643v0.187h-4.876C146.143,36.158,145.957,35.265,145.844,34.408z M145.88,29.793v-2.866
		c-0.892,0.52-2.27,0.818-3.536,1.117c-2.642,0.595-3.944,1.19-3.944,2.978s1.19,2.419,2.978,2.419
		C144.282,33.44,145.88,31.653,145.88,29.793z"/>
	<path fill="#002D56" d="M151.844,17.434h2.643v-5.957h4.951v5.957h3.275v3.35h-3.275v10.125c0,1.415,0.782,1.899,1.899,1.899
		c0.632,0,1.489-0.039,1.489-0.039v3.725c0,0-1.156,0.074-3.166,0.074c-2.456,0-5.174-0.968-5.174-4.579V20.784h-2.643V17.434z"/>
	<path fill="#002D56" d="M163.534,26.965c0-5.66,3.835-10.052,9.418-10.052c6.144,0,9.419,4.691,9.419,11.503h-13.85
		c0.372,2.941,2.011,4.766,4.878,4.766c1.972,0,3.127-0.894,3.686-2.347h4.987c-0.707,3.387-3.722,6.254-8.636,6.254
		C167.107,37.089,163.534,32.659,163.534,26.965z M168.596,24.917h8.488c-0.148-2.422-1.751-4.096-4.058-4.096
		C170.346,20.821,169.043,22.422,168.596,24.917z"/>
	<path fill="#002D56" d="M184.383,37.089h5.027c0.408,1.192,1.488,2.123,3.832,2.123c2.867,0,4.245-1.378,4.245-3.984v-2.083h-0.111
		c-1.117,1.264-2.569,2.233-4.988,2.233c-4.244,0-8.414-3.353-8.414-9.122c0-5.694,3.425-9.343,8.265-9.343
		c2.383,0,4.13,0.931,5.286,2.532h0.073v-2.01h4.878v17.645c0,2.682-0.857,4.505-2.271,5.809c-1.6,1.487-4.058,2.159-6.886,2.159
		C188.106,43.047,184.905,40.811,184.383,37.089z M197.748,26.145c0-2.792-1.488-5.175-4.542-5.175c-2.568,0-4.28,2.011-4.28,5.213
		c0,3.238,1.712,5.138,4.317,5.138C196.446,31.32,197.748,28.975,197.748,26.145z"/>
	<path fill="#002D56" d="M205.049,9.915h5.063v4.542h-5.063V9.915z M205.049,17.434h5.063v19.097h-5.063V17.434z"/>
	<path fill="#002D56" d="M211.973,30.351h4.691c0.336,2.197,1.897,3.166,4.171,3.166c2.232,0,3.498-0.857,3.498-2.196
		c0-1.824-2.419-2.011-5.026-2.532c-3.423-0.671-6.775-1.602-6.775-5.771c0-4.131,3.426-6.105,7.781-6.105
		c5.024,0,7.818,2.495,8.191,6.327h-4.579c-0.226-2.046-1.527-2.791-3.686-2.791c-1.974,0-3.276,0.745-3.276,2.123
		c0,1.639,2.529,1.787,5.248,2.346c3.203,0.669,6.738,1.562,6.738,6.03c0,3.833-3.276,6.142-8.041,6.142
		C215.362,37.089,212.272,34.408,211.973,30.351z"/>
</g>
<g>
	<path fill="#002D56" d="M88.093,41.341h10.46c2.904,0,4.839,0.818,6.254,2.308c1.192,1.266,1.861,2.94,1.861,5.137
		c0,4.914-2.865,7.596-8.45,7.596h-7.63v11.576h-2.495V41.341z M98.032,54.258c4.319,0,6.107-2.048,6.107-5.397
		c0-3.426-2.05-5.323-5.884-5.323h-7.667v10.721H98.032z"/>
	<path fill="#002D56" d="M107.306,63.043c0-4.578,3.573-5.509,7.93-6.03c3.797-0.446,5.173-0.669,5.173-2.606v-0.372
		c0-2.604-1.638-3.87-4.616-3.87c-3.425,0-5.21,1.414-5.396,4.28h-2.271c0.261-3.723,2.718-6.142,7.668-6.142
		c4.208,0,6.813,1.748,6.813,5.955v10.461c0,1.155,0.447,1.638,1.266,1.674c0.26,0,0.521-0.073,0.856-0.146h0.111v1.675
		c-0.334,0.149-0.818,0.297-1.562,0.297c-1.676,0-2.719-0.855-2.83-2.717v-0.41h-0.111c-1.079,1.527-3.054,3.312-6.739,3.312
		C110.022,68.403,107.306,66.618,107.306,63.043z M120.447,60.996v-3.462c-1.228,0.671-3.128,1.006-4.989,1.266
		c-3.239,0.445-5.731,0.931-5.731,4.243c0,2.682,2.01,3.5,4.28,3.5C118.212,66.543,120.447,63.639,120.447,60.996z"/>
	<path fill="#002D56" d="M126.707,48.712h2.306v3.573h0.077c1.188-2.234,3.2-3.724,5.881-3.724c0.297,0,0.482,0.038,0.632,0.076
		v2.271c-1.377-0.224-2.904,0.073-4.095,0.93c-1.488,1.117-2.495,2.905-2.495,5.175v10.944h-2.306V48.712z"/>
	<path fill="#002D56" d="M140.481,64.646V50.609h-2.903v-1.897h2.903v-5.919h2.31v5.919h3.573v1.897h-3.573v13.663
		c0,1.377,0.632,1.824,1.861,1.824c0.521,0,1.192-0.149,1.525-0.299h0.112v1.974c-0.632,0.223-1.303,0.336-2.123,0.336
		C141.97,68.107,140.481,67.102,140.481,64.646z"/>
	<path fill="#002D56" d="M148.823,48.712h2.308v2.941h0.075c1.303-1.938,3.387-3.351,6.44-3.351c3.573,0,6.142,2.121,6.142,5.992
		v13.662h-2.308V54.52c0-2.904-1.677-4.243-4.393-4.243c-3.275,0-5.957,2.307-5.957,5.471v12.21h-2.308V48.712z"/>
	<path fill="#002D56" d="M166.36,58.354c0-5.771,3.463-10.088,8.786-10.088c6.181,0,8.301,5.099,8.265,10.498h-14.668
		c0.112,4.317,2.196,7.706,6.589,7.706c3.201,0,4.878-1.713,5.623-4.32h2.232c-0.82,3.798-3.536,6.293-7.855,6.293
		C169.563,68.442,166.36,64.123,166.36,58.354z M180.991,56.939c-0.113-3.799-1.897-6.775-5.845-6.775
		c-3.908,0-5.956,2.94-6.367,6.775H180.991z"/>
	<path fill="#002D56" d="M185.91,48.712h2.306v3.573h0.076c1.19-2.234,3.201-3.724,5.881-3.724c0.297,0,0.483,0.038,0.632,0.076
		v2.271c-1.375-0.224-2.903,0.073-4.094,0.93c-1.489,1.117-2.495,2.905-2.495,5.175v10.944h-2.306V48.712z"/>
	<path fill="#002D56" d="M195.664,61.964h2.347c0.333,3.239,2.568,4.542,5.658,4.542c3.201,0,4.876-1.488,4.876-3.722
		c0-2.123-1.19-2.831-5.138-3.725c-3.908-0.892-7.035-1.821-7.035-5.546c0-3.201,2.754-5.211,6.699-5.211
		c4.579,0,6.702,2.307,7.147,5.695h-2.307c-0.262-2.495-1.974-3.798-4.841-3.798c-2.977,0-4.393,1.415-4.393,3.202
		c0,2.196,1.824,2.717,5.51,3.573c3.871,0.819,6.664,1.788,6.664,5.771c0,3.425-2.755,5.733-7.223,5.733
		C198.492,68.479,195.887,65.688,195.664,61.964z"/>
</g>
<polygon fill="#89D4E3" points="19.961,17.506 1.729,17.506 1.729,67.998 52.226,67.998 52.226,60.79 11.404,50.061 "/>
<polygon fill="#002D56" points="73.078,14.06 24.237,1.225 19.961,17.506 52.226,17.506 52.226,60.79 60.245,62.895 "/>
<polygon fill="#1EA0BA" points="19.961,17.506 11.404,50.061 52.226,60.79 52.226,17.506 "/>
</svg>
